<!-- filepath: c:\Users\maula\Documents\Developments\invoice-generator\public\favicon.svg -->
<svg width="32" height="32" viewBox="0 0 32 32" fill="none" xmlns="http://www.w3.org/2000/svg">
  <!-- Background -->
  <rect width="32" height="32" rx="6" fill="#4F46E5" />
  
  <!-- Document shape -->
  <path d="M8 6C8 5.44772 8.44772 5 9 5H23C23.5523 5 24 5.44772 24 6V26C24 26.5523 23.5523 27 23 27H9C8.44772 27 8 26.5523 8 26V6Z" fill="white" />
  
  <!-- Header line -->
  <rect x="10" y="9" width="12" height="2" rx="1" fill="#4F46E5" />
  
  <!-- Content lines -->
  <rect x="10" y="13" width="10" height="1.5" rx="0.75" fill="#D1D5DB" />
  <rect x="10" y="16" width="8" height="1.5" rx="0.75" fill="#D1D5DB" />
  <rect x="10" y="19" width="12" height="1.5" rx="0.75" fill="#D1D5DB" />
  
  <!-- Total line -->
  <rect x="10" y="23" width="12" height="2" rx="1" fill="#4F46E5" />
</svg>